<?xml version="1.0" encoding="UTF-8" standalone="no"?>
<!DOCTYPE svg PUBLIC "-//W3C//DTD SVG 1.1//EN"
 "http://www.w3.org/Graphics/SVG/1.1/DTD/svg11.dtd">
<!-- Generated by graphviz version 2.38.0 (20140413.2041)
 -->
<!-- Title: %3 Pages: 1 -->
<svg width="235pt" height="116pt"
 viewBox="0.00 0.00 234.54 116.00" xmlns="http://www.w3.org/2000/svg" xmlns:xlink="http://www.w3.org/1999/xlink">
<g id="graph0" class="graph" transform="scale(1 1) rotate(0) translate(4 112)">
<title>%3</title>
<polygon fill="white" stroke="none" points="-4,4 -4,-112 230.544,-112 230.544,4 -4,4"/>
<!-- a -->
<g id="node1" class="node"><title>a</title>
<polygon fill="none" stroke="black" points="82.5438,-108 28.5438,-108 28.5438,-72 82.5438,-72 82.5438,-108"/>
<text text-anchor="middle" x="55.5438" y="-86.3" font-family="Times,serif" font-size="14.00">a</text>
</g>
<!-- o1 -->
<g id="node4" class="node"><title>o1</title>
<ellipse fill="none" stroke="black" cx="69.5438" cy="-18" rx="69.5877" ry="18"/>
<text text-anchor="middle" x="69.5438" y="-14.3" font-family="Times,serif" font-size="14.00">int:285542...607</text>
</g>
<!-- a&#45;&gt;o1 -->
<g id="edge3" class="edge"><title>a&#45;&gt;o1</title>
<path fill="none" stroke="black" d="M59.0045,-71.6966C60.5473,-63.9827 62.4013,-54.7125 64.1213,-46.1124"/>
<polygon fill="black" stroke="black" points="67.5938,-46.5966 66.123,-36.1043 60.7297,-45.2237 67.5938,-46.5966"/>
</g>
<!-- b -->
<g id="node2" class="node"><title>b</title>
<polygon fill="none" stroke="black" points="154.544,-108 100.544,-108 100.544,-72 154.544,-72 154.544,-108"/>
<text text-anchor="middle" x="127.544" y="-86.3" font-family="Times,serif" font-size="14.00">b</text>
</g>
<!-- b&#45;&gt;o1 -->
<g id="edge1" class="edge"><title>b&#45;&gt;o1</title>
<path fill="none" stroke="black" d="M113.207,-71.6966C106.253,-63.3046 97.7737,-53.0705 90.1432,-43.8613"/>
<polygon fill="black" stroke="black" points="92.7913,-41.5715 83.716,-36.1043 87.4011,-46.0376 92.7913,-41.5715"/>
</g>
<!-- c -->
<g id="node3" class="node"><title>c</title>
<polygon fill="none" stroke="black" points="226.544,-108 172.544,-108 172.544,-72 226.544,-72 226.544,-108"/>
<text text-anchor="middle" x="199.544" y="-86.3" font-family="Times,serif" font-size="14.00">c</text>
</g>
<!-- o2 -->
<g id="node5" class="node"><title>o2</title>
<ellipse fill="none" stroke="black" cx="199.544" cy="-18" rx="27" ry="18"/>
<text text-anchor="middle" x="199.544" y="-14.3" font-family="Times,serif" font-size="14.00">int:1</text>
</g>
<!-- c&#45;&gt;o2 -->
<g id="edge2" class="edge"><title>c&#45;&gt;o2</title>
<path fill="none" stroke="black" d="M199.544,-71.6966C199.544,-63.9827 199.544,-54.7125 199.544,-46.1124"/>
<polygon fill="black" stroke="black" points="203.044,-46.1043 199.544,-36.1043 196.044,-46.1044 203.044,-46.1043"/>
</g>
</g>
</svg>
