<?xml version="1.0" encoding="UTF-8" standalone="no"?>
<!DOCTYPE svg PUBLIC "-//W3C//DTD SVG 1.1//EN"
 "http://www.w3.org/Graphics/SVG/1.1/DTD/svg11.dtd">
<!-- Generated by graphviz version 2.38.0 (20140413.2041)
 -->
<!-- Title: %3 Pages: 1 -->
<svg width="364pt" height="116pt"
 viewBox="0.00 0.00 363.54 116.00" xmlns="http://www.w3.org/2000/svg" xmlns:xlink="http://www.w3.org/1999/xlink">
<g id="graph0" class="graph" transform="scale(1 1) rotate(0) translate(4 112)">
<title>%3</title>
<polygon fill="white" stroke="none" points="-4,4 -4,-112 359.544,-112 359.544,4 -4,4"/>
<!-- a -->
<g id="node1" class="node"><title>a</title>
<polygon fill="none" stroke="black" points="96.5438,-108 42.5438,-108 42.5438,-72 96.5438,-72 96.5438,-108"/>
<text text-anchor="middle" x="69.5438" y="-86.3" font-family="Times,serif" font-size="14.00">a</text>
</g>
<!-- o1 -->
<g id="node4" class="node"><title>o1</title>
<ellipse fill="none" stroke="black" cx="69.5438" cy="-18" rx="69.5877" ry="18"/>
<text text-anchor="middle" x="69.5438" y="-14.3" font-family="Times,serif" font-size="14.00">int:285542...607</text>
</g>
<!-- a&#45;&gt;o1 -->
<g id="edge1" class="edge"><title>a&#45;&gt;o1</title>
<path fill="none" stroke="black" d="M69.5438,-71.6966C69.5438,-63.9827 69.5438,-54.7125 69.5438,-46.1124"/>
<polygon fill="black" stroke="black" points="73.0439,-46.1043 69.5438,-36.1043 66.0439,-46.1044 73.0439,-46.1043"/>
</g>
<!-- b -->
<g id="node2" class="node"><title>b</title>
<polygon fill="none" stroke="black" points="211.544,-108 157.544,-108 157.544,-72 211.544,-72 211.544,-108"/>
<text text-anchor="middle" x="184.544" y="-86.3" font-family="Times,serif" font-size="14.00">b</text>
</g>
<!-- o2 -->
<g id="node5" class="node"><title>o2</title>
<ellipse fill="none" stroke="black" cx="184.544" cy="-18" rx="27" ry="18"/>
<text text-anchor="middle" x="184.544" y="-14.3" font-family="Times,serif" font-size="14.00">int:1</text>
</g>
<!-- b&#45;&gt;o2 -->
<g id="edge2" class="edge"><title>b&#45;&gt;o2</title>
<path fill="none" stroke="black" d="M184.544,-71.6966C184.544,-63.9827 184.544,-54.7125 184.544,-46.1124"/>
<polygon fill="black" stroke="black" points="188.044,-46.1043 184.544,-36.1043 181.044,-46.1044 188.044,-46.1043"/>
</g>
<!-- c -->
<g id="node3" class="node"><title>c</title>
<polygon fill="none" stroke="black" points="283.544,-108 229.544,-108 229.544,-72 283.544,-72 283.544,-108"/>
<text text-anchor="middle" x="256.544" y="-86.3" font-family="Times,serif" font-size="14.00">c</text>
</g>
<!-- o4 -->
<g id="node7" class="node"><title>o4</title>
<ellipse fill="none" stroke="black" cx="256.544" cy="-18" rx="27" ry="18"/>
<text text-anchor="middle" x="256.544" y="-14.3" font-family="Times,serif" font-size="14.00">int:1</text>
</g>
<!-- c&#45;&gt;o4 -->
<g id="edge3" class="edge"><title>c&#45;&gt;o4</title>
<path fill="none" stroke="black" d="M256.544,-71.6966C256.544,-63.9827 256.544,-54.7125 256.544,-46.1124"/>
<polygon fill="black" stroke="black" points="260.044,-46.1043 256.544,-36.1043 253.044,-46.1044 260.044,-46.1043"/>
</g>
<!-- o3 -->
<g id="node6" class="node"><title>o3</title>
<ellipse fill="none" stroke="black" cx="328.544" cy="-90" rx="27" ry="18"/>
<text text-anchor="middle" x="328.544" y="-86.3" font-family="Times,serif" font-size="14.00">int:0</text>
</g>
</g>
</svg>
